<?xml version="1.0" encoding="UTF-8"?><svg id="Layer_1" xmlns="http://www.w3.org/2000/svg" viewBox="0 0 100 100"><defs><style>.cls-1{fill:#fff;}</style></defs><path class="cls-1" d="M10.47,88.07c-6.1,.07-9.81-3.92-9.77-9.83,.12-18.56,.04-37.12,.05-55.68,0-6.36,3.41-9.77,9.77-9.77,26.33,0,52.66,0,79,0,5.06,0,8.33,2.32,9.36,6.67,.2,.86,.24,1.77,.24,2.66,.01,18.89,.01,37.78,0,56.67,0,5.75-3.46,9.22-9.24,9.23-13.33,.02-66.28-.1-79.42,.05ZM6.77,20.43c.09,.14,.15,.27,.25,.36,11.65,11.66,23.26,23.36,34.99,34.93,4.82,4.75,11.62,4.58,16.44-.21,11.39-11.32,22.71-22.71,34.1-34.04,.94-.93,.64-1.7-.19-2.15-.86-.46-1.94-.71-2.92-.72-26.32-.04-52.65-.03-78.97-.03-.38,0-.75,0-1.13,.02-1.22,.09-2.14,.6-2.57,1.82Zm.03,60.15c.52,1.19,1.55,1.71,2.96,1.71,26.79,0,53.58,0,80.38-.03,.67,0,1.42-.19,1.99-.53,1.28-.75,1.32-1.48,.26-2.53-6.59-6.59-13.19-13.18-19.77-19.78-1.66-1.66-3.3-3.35-5.16-5.26-1.67,1.75-3.25,3.44-4.86,5.08-7.01,7.14-18.33,7.03-24.79,.18-1.63-1.73-3.38-3.35-4.96-4.9-8.76,8.76-17.37,17.37-26.06,26.06Zm-.17-8.71c7.27-7.27,14.47-14.47,21.31-21.31-6.98-7.17-14.08-14.46-21.31-21.88v43.18Zm65.6-21.65c6.91,6.92,14.04,14.05,21.01,21.02V28.79c-7.23,7.37-14.25,14.52-21.01,21.42Z"/></svg>