<?xml version="1.0" encoding="UTF-8"?><svg id="Layer_1" xmlns="http://www.w3.org/2000/svg" xmlns:xlink="http://www.w3.org/1999/xlink" viewBox="0 0 100 100"><defs><style>.cls-1{fill:none;}.cls-2{clip-path:url(#clippath);}.cls-3{fill:#09f;}</style><clipPath id="clippath"><rect class="cls-1" x=".52" y=".99" width="98.62" height="97.78" rx="17.01" ry="17.01"/></clipPath></defs><g class="cls-2"><path class="cls-3" d="M-1.29,5.73C-.72,2.59,1.57,.37,4.68-.06c1.07-.15,89.83-.13,91.25,.66,2.59,1.44,3.85,3.72,4.01,6.64,.02,.43-.18,87.01-.26,87.98-.19,2.48-3.18,5.52-5.74,5.7-.92,.07-88.61,.06-89.58-.01-2.46-.18-5.43-3.15-5.64-5.6-.08-.97-.16-88.73,0-89.58ZM85.14,86.28v-2.11c0-7.71,.03-15.42-.01-23.14-.01-2.6-.18-5.2-.31-7.8-.13-2.62-.73-5.15-1.7-7.58-1.58-3.94-4.33-6.7-8.37-8.11-2.64-.93-5.37-1.24-8.15-1.22-4.56,.04-8.49,1.55-11.67,4.86-.82,.85-1.55,1.79-2.35,2.72-.06-2.06,.05-4.1-.06-6.09-2.04-.36-13.43-.28-14.58,.06-.32,1.71-.25,47.09,.07,48.28,1.6,.34,13.85,.28,15.19-.12,0-.59,0-1.23,0-1.87,0-7.66,0-15.32,0-22.97,0-2.13,.3-4.22,1-6.23,.81-2.36,2.39-3.98,4.82-4.67,.73-.21,1.49-.36,2.24-.39,3.82-.16,6.48,1.06,7.64,4.65,.46,1.42,.72,2.97,.73,4.47,.08,8.42,.05,16.84,.07,25.25,0,.63,.06,1.26,.09,1.98h15.35ZM28.63,37.82c-2-.36-14.08-.28-15.21,.07-.32,2.01-.22,47.14,.1,48.29,1.8,.35,13.9,.26,15.1-.13V37.82Zm-7.74-6.56c4.95-.14,8.89-3.55,9-8.84,.12-5.4-4.4-8.94-8.83-8.96-4.52-.02-9.03,3.4-9,8.95,.03,5.61,4.67,8.78,8.82,8.85Z"/></g></svg>